<svg width="25" height="25" viewBox="0 0 25 25" fill="none" xmlns="http://www.w3.org/2000/svg">
<path d="M23.5285 14.9024C23.037 14.1379 22.5458 13.4007 22.0543 12.6364C21.9453 12.4727 21.9453 12.3634 22.0543 12.1997C22.5458 11.4627 23.0098 10.7254 23.5013 9.98844C24.0745 9.11494 23.7743 8.26844 22.7913 7.91369C21.9725 7.61344 21.1535 7.28594 20.3345 6.98569C20.1708 6.93094 20.0888 6.82169 20.0888 6.63069C20.0615 5.72994 20.007 4.82894 19.9523 3.95544C19.8978 2.99994 19.1608 2.45394 18.2325 2.69969C17.359 2.91794 16.4855 3.16369 15.639 3.40944C15.448 3.46394 15.339 3.40944 15.2023 3.27294C14.6563 2.56294 14.083 1.88069 13.5373 1.19819C12.9365 0.433937 12.0083 0.433937 11.3805 1.19819C10.8345 1.88069 10.2613 2.56319 9.74254 3.24569C9.60604 3.43669 9.46954 3.46394 9.25129 3.40944C8.40504 3.16369 7.55879 2.94544 6.95804 2.78144C5.78429 2.50844 5.07454 2.97269 5.01979 3.95544C4.96529 4.85619 4.91079 5.75719 4.88329 6.68544C4.88329 6.87644 4.80154 6.95819 4.63779 7.04019L2.09904 8.02294C1.22529 8.37794 0.952294 9.22419 1.47104 10.0157C1.96254 10.7802 2.45379 11.5172 2.94529 12.2814C3.05429 12.4454 3.05429 12.5544 2.94529 12.7457C2.429 13.5088 1.9284 14.2823 1.44379 15.0659C0.979794 15.8032 1.28004 16.6767 2.09879 17.0042C2.94529 17.3317 3.81879 17.6592 4.66504 17.9869C4.85604 18.0417 4.91079 18.1507 4.91079 18.3419C4.93804 19.2154 5.04729 20.0619 5.04729 20.9352C5.04729 21.8089 5.81154 22.6004 6.87629 22.2729C7.72254 21.9999 8.56879 21.8089 9.41504 21.5629C9.57879 21.5084 9.68804 21.5359 9.79729 21.6997C10.3705 22.4094 10.9165 23.0919 11.4898 23.8017C12.1175 24.5659 13.0185 24.5659 13.619 23.8017C14.1923 23.0917 14.7383 22.4092 15.3115 21.6997C15.4208 21.5632 15.5025 21.5084 15.6938 21.5632C16.5673 21.8089 17.4408 22.0272 18.3145 22.2729C19.2153 22.5187 19.9795 21.9727 20.007 21.0444C20.0615 20.1437 20.116 19.2427 20.1435 18.3144C20.1435 18.0962 20.2525 18.0144 20.4165 17.9597C21.2491 17.6531 22.0772 17.3346 22.9005 17.0042C23.7743 16.5674 24.0473 15.6942 23.5285 14.9024ZM17.004 10.4249L11.5443 15.8849C11.4078 16.0212 11.2168 16.1304 11.0255 16.1577C10.971 16.1577 10.889 16.1852 10.8345 16.1852C10.5888 16.1852 10.3158 16.0759 10.1248 15.8847L7.88629 13.6462C7.70265 13.461 7.59961 13.2108 7.59961 12.9501C7.59961 12.6893 7.70265 12.4391 7.88629 12.2539C8.07144 12.0703 8.32165 11.9673 8.58242 11.9673C8.84319 11.9673 9.0934 12.0703 9.27854 12.2539L10.8073 13.7827L15.5573 9.03269C15.7424 8.84904 15.9926 8.746 16.2534 8.746C16.5142 8.746 16.7644 8.84904 16.9495 9.03269C17.3863 9.41494 17.3863 10.0424 17.004 10.4249Z" fill="#EBD59F"/>
</svg>
