<svg width="24" height="24" viewBox="0 0 24 24" fill="none" xmlns="http://www.w3.org/2000/svg">
<g clip-path="url(#clip0_1_10423)">
<path d="M22.5 8.99995V21.5C22.5036 21.992 22.3571 22.4734 22.08 22.88C21.991 23.0207 21.8871 23.1515 21.77 23.27L11.85 13.35L11.5 12.9999L18.33 6.16992L18.76 6.43992L22.26 8.56992C22.3333 8.6153 22.3937 8.6786 22.4357 8.75384C22.4777 8.82908 22.4998 8.91379 22.5 8.99995Z" fill="#CFD8DC"/>
<path d="M18.33 6.17002L11.1501 13.35L1.23005 23.27C1.11297 23.1516 1.00904 23.0208 0.920063 22.88C0.643021 22.4734 0.49651 21.992 0.500063 21.5V5.49998C0.500063 4.11928 1.61934 3 3.00005 3H13C13.0909 3.0031 13.1799 3.02704 13.26 3.06998L17.9001 5.89997L18.33 6.17002Z" fill="#4CAF50"/>
<path d="M21.7705 23.27C21.6521 23.3872 21.5213 23.4911 21.3805 23.58C20.9739 23.8571 20.4925 24.0036 20.0005 24H3.00047C2.50846 24.0036 2.02705 23.8571 1.62047 23.58C1.47963 23.4911 1.34887 23.3872 1.23047 23.27L11.1505 13.35L11.5005 13L11.8505 13.35L21.7705 23.27Z" fill="#2196F3"/>
<path d="M22.0793 22.8793C21.9023 23.1629 21.6629 23.4023 21.3793 23.5793L11.1493 13.3493C10.9579 13.154 10.9611 12.8406 11.1563 12.6493C11.3488 12.4607 11.6568 12.4607 11.8493 12.6493L22.0793 22.8793Z" fill="#FAFAFA"/>
<path d="M18.7599 6.44039L11.8499 13.3504L1.61991 23.5804C1.3363 23.4034 1.09688 23.164 0.919922 22.8804L17.8999 5.90039L18.7599 6.44039Z" fill="#FFC107"/>
<path d="M5.00002 9.00003C3.89545 9.00003 3 8.10458 3 7.00002C3 5.89545 3.89545 5 5.00002 5C6.10458 5 7.00003 5.89545 7.00003 7.00002C7.00003 8.10458 6.10458 9.00003 5.00002 9.00003ZM5.00002 6.00003C4.44773 6.00003 4.00003 6.44773 4.00003 7.00002C4.00003 7.5523 4.44773 8 5.00002 8C5.5523 8 6 7.5523 6 7.00002C6 6.44773 5.5523 6.00003 5.00002 6.00003Z" fill="#FAFAFA"/>
<path d="M7.00005 6.00003H5.00003C4.72389 6.00003 4.50002 5.77616 4.50002 5.50002C4.50002 5.22388 4.72389 5 5.00003 5H7.00005C7.27619 5 7.50006 5.22388 7.50006 5.50002C7.50006 5.77616 7.27619 6.00003 7.00005 6.00003ZM5.00003 13C3.76525 13.1444 2.64723 12.2604 2.50286 11.0256C2.50188 11.0171 2.50089 11.0086 2.5 11C2.5 10.065 3.388 9.43405 5.14202 9.11806C5.04831 8.92554 4.99975 8.71418 5.00003 8.50006C5.00003 8.22392 5.22391 8.00005 5.50005 8.00005C5.77619 8.00005 6.00006 8.22392 6.00006 8.50006C6.00006 8.72708 6.20706 8.94205 6.54705 9.27106C6.81942 9.47519 7.04526 9.73493 7.20957 10.033C7.37388 10.3311 7.4729 10.6608 7.50006 11C7.50002 12.758 6.30002 13 5.00003 13ZM5.88002 10.018C4.12802 10.239 3.50003 10.681 3.50003 11C3.50003 11.2 3.76703 12 5.00003 12C6.43305 12 6.50003 11.657 6.50003 11C6.50003 10.65 6.26702 10.393 5.88002 10.018Z" fill="#FAFAFA"/>
<path d="M18 0C14.964 0.00384375 12.5038 2.46403 12.5 5.49998C12.5016 5.80209 12.5315 6.10341 12.589 6.39998C12.7095 7.17524 12.9987 7.91462 13.436 8.56598C13.668 8.96597 13.936 9.38198 14.219 9.82598C15.8449 12.1601 16.9658 14.8079 17.51 17.6C17.5649 17.8706 17.8289 18.0454 18.0995 17.9905C18.1958 17.9709 18.2841 17.9235 18.3536 17.854C18.423 17.7846 18.4705 17.6962 18.49 17.6C19.0338 14.8076 20.1544 12.1595 21.78 9.82495C22.065 9.38194 22.331 8.96897 22.543 8.59795C22.9885 7.94052 23.2842 7.19323 23.409 6.40894C23.4674 6.10941 23.4979 5.8051 23.5 5.49994C23.4961 2.46403 21.036 0.00384375 18 0Z" fill="#F44336"/>
<path d="M18 7.99997C19.3807 7.99997 20.5 6.88069 20.5 5.49998C20.5 4.11928 19.3807 3 18 3C16.6193 3 15.5 4.11928 15.5 5.49998C15.5 6.88069 16.6193 7.99997 18 7.99997Z" fill="#C62828"/>
</g>
<defs>
<clipPath id="clip0_1_10423">
<rect width="24" height="24" fill="white"/>
</clipPath>
</defs>
</svg>
