<svg width="19" height="20" viewBox="0 0 19 20" fill="none" xmlns="http://www.w3.org/2000/svg">
<g clip-path="url(#clip0_1_3391)">
<path d="M9.5 1.7998C12.0383 1.7998 12.3389 1.81152 13.3371 1.8584C14.2648 1.90137 14.7658 2.06543 15.0998 2.20215C15.5414 2.38184 15.8605 2.60059 16.1908 2.94824C16.5248 3.2998 16.7289 3.63184 16.8996 4.09668C17.0295 4.44824 17.1853 4.97949 17.2262 5.95215C17.2707 7.00683 17.2818 7.32324 17.2818 9.99121C17.2818 12.6631 17.2707 12.9795 17.2262 14.0303C17.1853 15.0068 17.0295 15.5342 16.8996 15.8857C16.7289 16.3506 16.5211 16.6865 16.1908 17.0342C15.8568 17.3857 15.5414 17.6006 15.0998 17.7803C14.7658 17.917 14.2611 18.0811 13.3371 18.124C12.3351 18.1709 12.0346 18.1826 9.5 18.1826C6.96172 18.1826 6.66113 18.1709 5.66289 18.124C4.73515 18.0811 4.23418 17.917 3.90019 17.7803C3.45859 17.6006 3.13945 17.3818 2.80918 17.0342C2.47519 16.6826 2.27109 16.3506 2.10039 15.8857C1.97051 15.5342 1.81465 15.0029 1.77383 14.0303C1.7293 12.9756 1.71816 12.6592 1.71816 9.99121C1.71816 7.31933 1.7293 7.00293 1.77383 5.95215C1.81465 4.97558 1.97051 4.44824 2.10039 4.09668C2.27109 3.63184 2.4789 3.2959 2.80918 2.94824C3.14316 2.59668 3.45859 2.38184 3.90019 2.20215C4.23418 2.06543 4.73886 1.90137 5.66289 1.8584C6.66113 1.81152 6.96172 1.7998 9.5 1.7998ZM9.5 -0.000976562C6.9209 -0.000976562 6.59804 0.0107422 5.58496 0.0576172C4.57558 0.104492 3.88164 0.276367 3.28047 0.522461C2.65332 0.780273 2.12266 1.12012 1.5957 1.67871C1.06504 2.2334 0.742187 2.79199 0.497265 3.44824C0.263476 4.08496 0.100195 4.81152 0.055664 5.87402C0.0111328 6.94433 0 7.28418 0 9.99902C0 12.7139 0.0111328 13.0537 0.055664 14.1201C0.100195 15.1826 0.263476 15.9131 0.497265 16.5459C0.742187 17.2061 1.06504 17.7646 1.5957 18.3193C2.12266 18.874 2.65332 19.2178 3.27676 19.4717C3.88164 19.7178 4.57187 19.8896 5.58125 19.9365C6.59433 19.9834 6.91718 19.9951 9.49628 19.9951C12.0754 19.9951 12.3982 19.9834 13.4113 19.9365C14.4207 19.8896 15.1146 19.7178 15.7158 19.4717C16.3393 19.2178 16.8699 18.874 17.3969 18.3193C17.9238 17.7646 18.2504 17.2061 18.4916 16.5498C18.7254 15.9131 18.8887 15.1865 18.9332 14.124C18.9777 13.0576 18.9889 12.7178 18.9889 10.0029C18.9889 7.28808 18.9777 6.94824 18.9332 5.88183C18.8887 4.81933 18.7254 4.08887 18.4916 3.45605C18.2578 2.79199 17.935 2.2334 17.4043 1.67871C16.8773 1.12402 16.3467 0.780273 15.7232 0.526367C15.1184 0.280273 14.4281 0.108398 13.4187 0.0615234C12.4019 0.0107422 12.0791 -0.000976562 9.5 -0.000976562Z" fill="#898989"/>
<path d="M9.5 4.8623C6.80586 4.8623 4.62012 7.16309 4.62012 9.99902C4.62012 12.835 6.80586 15.1357 9.5 15.1357C12.1941 15.1357 14.3799 12.835 14.3799 9.99902C14.3799 7.16309 12.1941 4.8623 9.5 4.8623ZM9.5 13.3311C7.75215 13.3311 6.33457 11.8389 6.33457 9.99902C6.33457 8.15918 7.75215 6.66699 9.5 6.66699C11.2479 6.66699 12.6654 8.15918 12.6654 9.99902C12.6654 11.8389 11.2479 13.3311 9.5 13.3311Z" fill="#898989"/>
<path d="M15.7121 4.65918C15.7121 5.32325 15.2 5.8584 14.5728 5.8584C13.942 5.8584 13.4336 5.31934 13.4336 4.65918C13.4336 3.99512 13.9457 3.45996 14.5728 3.45996C15.2 3.45996 15.7121 3.99902 15.7121 4.65918Z" fill="#898989"/>
</g>
<defs>
<clipPath id="clip0_1_3391">
<rect width="19" height="20" fill="white" transform="translate(0 -0.000976562)"/>
</clipPath>
</defs>
</svg>
