<svg width="24" height="24" viewBox="0 0 24 24" fill="none" xmlns="http://www.w3.org/2000/svg">
<g clip-path="url(#clip0_1_10409)">
<path d="M0.205846 1.20046L11.5027 12.4973L13.8272 12.1769L14.4858 9.51418L10.3908 5.4192C10.2925 5.32081 10.2256 5.1955 10.1985 5.05909C10.1713 4.92268 10.1853 4.7813 10.2385 4.65279C10.2916 4.52426 10.3818 4.4144 10.4974 4.33713C10.6131 4.25986 10.7491 4.21866 10.8881 4.21873H19.0781C19.2722 4.21873 19.448 4.29748 19.575 4.42498L22.3946 3.23572L23.7937 0.206249C23.6667 0.0787498 23.4909 1.09991e-07 23.2969 1.09991e-07H19.7812L19.0821 0.8617L18.375 1.09991e-07H16.9688L16.3055 0.749997L15.5625 1.09991e-07H14.1563L13.3853 0.941481L12.75 1.09991e-07H11.3438L10.6087 0.893622L9.93753 1.09991e-07H8.53128L7.73643 0.893622L7.12504 1.09991e-07H0.703188C0.564094 -7.76993e-05 0.428106 0.0411288 0.31245 0.1184C0.196793 0.195671 0.106673 0.30553 0.0535032 0.434061C0.000306855 0.562562 -0.0136131 0.703947 0.0135017 0.840355C0.0406165 0.976763 0.10755 1.10208 0.205846 1.20046Z" fill="#FFC34D"/>
<path d="M11.502 12.4981L22.7988 23.7949C22.9995 23.9956 23.303 24.0559 23.5652 23.9473C23.8274 23.8386 23.9992 23.5814 23.9992 23.2976V16.8757L23.1026 16.0858L23.9992 15.4695V14.0632L23.1026 13.2295L23.9992 12.657V11.2507L23.0388 10.421L23.9992 9.84449V8.43825L22.9431 7.64438L23.9992 7.032V5.62576L23.0548 4.75609L23.9992 4.21952V0.703904C23.9992 0.509843 23.9205 0.334062 23.793 0.207031L19.5743 4.42577C19.7018 4.5528 19.7805 4.72858 19.7805 4.92264V13.1126C19.7805 13.3964 19.6087 13.6536 19.3465 13.7623C19.0842 13.8709 18.7808 13.8106 18.5801 13.6099L14.4851 9.51496L11.502 12.4981Z" fill="#FF9933"/>
<path d="M18.375 0V2.10937C18.375 2.49749 18.69 2.81249 19.0781 2.81249C19.4662 2.81249 19.7812 2.49749 19.7812 2.10937V0H18.375ZM15.5625 0V2.10937C15.5625 2.49749 15.8775 2.81249 16.2656 2.81249C16.6537 2.81249 16.9687 2.49749 16.9687 2.10937V0H15.5625ZM12.75 0V2.10937C12.75 2.49749 13.065 2.81249 13.4531 2.81249C13.8412 2.81249 14.1562 2.49749 14.1562 2.10937V0H12.75ZM9.93749 0V2.10937C9.93749 2.49749 10.2525 2.81249 10.6406 2.81249C11.0287 2.81249 11.3437 2.49749 11.3437 2.10937V0H9.93749ZM7.125 0V2.10937C7.125 2.49749 7.44 2.81249 7.82812 2.81249C8.21625 2.81249 8.53124 2.49749 8.53124 2.10937V0H7.125Z" fill="#FF9933"/>
<path d="M21.1875 4.92187C21.1875 5.30761 21.5049 5.62499 21.8906 5.62499H24V4.21875H21.8906C21.5049 4.21875 21.1875 4.53614 21.1875 4.92187ZM21.1875 7.73436C21.1875 8.12009 21.5049 8.43748 21.8906 8.43748H24V7.03124H21.8906C21.5049 7.03124 21.1875 7.34863 21.1875 7.73436ZM21.1875 10.5469C21.1875 10.9326 21.5049 11.25 21.8906 11.25H24V9.84373H21.8906C21.5049 9.84373 21.1875 10.1611 21.1875 10.5469ZM21.1875 13.3593C21.1875 13.7451 21.5049 14.0625 21.8906 14.0625H24V12.6562H21.8906C21.5049 12.6562 21.1875 12.9736 21.1875 13.3593ZM21.1875 16.1718C21.1875 16.5576 21.5049 16.875 21.8906 16.875H24V15.4687H21.8906C21.5049 15.4687 21.1875 15.7861 21.1875 16.1718Z" fill="#E66B2E"/>
<path d="M0 7.08984V9.54234C0 9.93094 0.315 10.2455 0.703125 10.2455C1.09125 10.2455 1.40625 9.93094 1.40625 9.54234V8.78719L8.30953 15.6909L9.16814 15.7236L9.30375 14.6967L2.40047 7.79297H3.15609C3.54422 7.79297 3.85922 7.47797 3.85922 7.08984C3.85922 6.70125 3.54422 6.38672 3.15609 6.38672H0.703125C0.315 6.38672 0 6.70125 0 7.08984Z" fill="#99CCFF"/>
<path d="M13.7541 23.2959C13.7541 23.6817 14.0715 23.9991 14.4572 23.9991H16.9097C17.2983 23.9991 17.6128 23.6841 17.6128 23.2959V20.843C17.6128 20.4548 17.2983 20.1398 16.9097 20.1398C16.5216 20.1398 16.2066 20.4548 16.2066 20.843V21.5986L9.30281 14.6953L8.30859 15.6895L15.2123 22.5928H14.4572C14.0715 22.5928 13.7541 22.9102 13.7541 23.2959Z" fill="#66B3FF"/>
</g>
<defs>
<clipPath id="clip0_1_10409">
<rect width="24" height="24" fill="white"/>
</clipPath>
</defs>
</svg>
