<svg width="22" height="22" viewBox="0 0 22 22" fill="none" xmlns="http://www.w3.org/2000/svg">
<g clip-path="url(#clip0_1_3382)">
<path d="M16.8854 6.29112C16.7424 4.60812 16.1484 3.71712 15.5324 3.01312M16.8854 6.29112C16.9261 6.73944 16.9386 7.18777 16.9314 7.61861C16.939 7.61703 16.947 7.61532 16.9555 7.61353C16.9779 7.60879 17.0034 7.60338 17.0318 7.59773M16.8854 6.29112L16.985 6.28265M16.8854 6.29112L16.985 6.28207C16.985 6.28226 16.985 6.28246 16.985 6.28265M15.5324 3.01312L17.2814 12.0771M15.5324 3.01312C15.1694 2.60612 13.7284 1.09912 11.0004 1.09912C8.27237 1.09912 6.83137 2.60612 6.46837 3.01312M15.5324 3.01312H6.46837M17.0318 7.59773C17.0313 7.63199 17.0306 7.66614 17.0299 7.70017C17.1511 7.67536 17.3271 7.64412 17.5344 7.64412C18.3154 7.64412 18.9534 8.07312 19.2064 8.74412M17.0318 7.59773C17.1546 7.57325 17.3303 7.54412 17.5344 7.54412C18.3535 7.54412 19.0309 7.99569 19.2998 8.70846M17.0318 7.59773C17.0382 7.17095 17.0254 6.72703 16.985 6.28265M19.2064 8.74412C19.3934 9.22812 19.3604 9.75612 19.1184 10.2071M19.2064 8.74412L19.2999 8.70884C19.2999 8.70871 19.2998 8.70859 19.2998 8.70846M19.2064 8.74412L19.2996 8.70808C19.2997 8.70821 19.2997 8.70833 19.2998 8.70846M19.1184 10.2071C18.8377 10.7403 18.3821 11.0349 17.7514 11.4426C17.6405 11.5143 17.5241 11.5895 17.4024 11.6701C17.2264 11.7801 17.2154 11.9011 17.2814 12.0771M19.1184 10.2071L19.2065 10.2544C19.2065 10.2543 19.2066 10.2542 19.2067 10.254C19.2067 10.2539 19.2068 10.2538 19.2069 10.2537L19.1184 10.2071ZM17.2814 12.0771L17.375 12.042C17.3746 12.041 17.3743 12.04 17.3739 12.0391C17.3734 12.038 17.373 12.037 17.3725 12.036L17.2814 12.0771ZM19.2998 8.70846L20.697 17.0089M16.985 6.28265C16.8398 4.57377 16.2342 3.6634 15.6076 2.94727L15.607 2.94656C15.2357 2.53024 13.7697 0.999121 11.0004 0.999121C8.23103 0.999121 6.76505 2.53024 6.39374 2.94656L6.39312 2.94727C5.7665 3.6634 5.16093 4.57377 5.01573 6.28265L5.01572 6.28265L5.0156 6.28432C4.98542 6.72708 4.97356 7.1694 4.97165 7.59449M4.97165 7.59449C4.84442 7.56807 4.67313 7.54412 4.46637 7.54412C3.65967 7.54412 2.97038 7.98347 2.70099 8.70834M4.97165 7.59449C4.9715 7.62866 4.97141 7.66272 4.97138 7.69666L6.46837 3.01312M4.97165 7.59449C5.00878 7.6022 5.04215 7.61011 5.07156 7.61771C5.07313 7.18714 5.08483 6.73913 5.11537 6.29112C5.25837 4.60812 5.85237 3.71712 6.46837 3.01312M2.70099 8.70834C2.50349 9.20877 2.53867 9.77803 2.79422 10.2543M2.70099 8.70834C2.70112 8.70801 2.70125 8.70768 2.70138 8.70735L2.79437 8.74412L2.70062 8.70934C2.70074 8.70901 2.70086 8.70867 2.70099 8.70834ZM2.79422 10.2543C3.09594 10.8188 3.567 11.1223 4.19045 11.524C4.30285 11.5965 4.42021 11.6721 4.54242 11.753M2.79422 10.2543C2.79423 10.2544 2.79424 10.2544 2.79426 10.2544L2.88236 10.2071L2.79418 10.2543C2.79419 10.2543 2.7942 10.2543 2.79422 10.2543ZM4.54242 11.753C4.62019 11.8066 4.64474 11.8464 4.65273 11.8777C4.66132 11.9114 4.65693 11.9579 4.62691 12.0389M4.54242 11.753C4.54219 11.7528 4.54195 11.7527 4.54172 11.7525L4.59837 11.6701L4.54316 11.7535C4.54292 11.7533 4.54267 11.7532 4.54242 11.753ZM4.62691 12.0389C4.10533 13.182 3.29514 13.7898 2.55919 14.2414C2.42415 14.3243 2.28956 14.403 2.15923 14.4793C1.93836 14.6085 1.72971 14.7306 1.55177 14.8535C1.26657 15.0505 1.0341 15.2659 0.929595 15.5514C0.749167 16.033 0.874144 16.5676 1.30359 17.0087C1.63313 17.3498 2.09879 17.5678 2.50069 17.7189C2.66582 17.7809 2.82291 17.8326 2.95684 17.8767C2.98652 17.8865 3.01507 17.8959 3.04232 17.9049C3.11803 17.9301 3.18292 17.9523 3.23563 17.9727C3.28599 17.9923 3.31965 18.0081 3.3396 18.0206C3.36639 18.0442 3.39143 18.0835 3.4214 18.1489C3.43554 18.1797 3.44953 18.2134 3.4653 18.2513L3.46927 18.2608C3.48642 18.302 3.50537 18.3473 3.52722 18.3946C3.61586 18.5864 3.75201 18.8116 4.03456 19.0117L4.0359 19.0126C4.48112 19.3173 4.97169 19.3381 5.4643 19.3491M4.62691 12.0389C4.6274 12.0378 4.62788 12.0367 4.62837 12.0357L4.71937 12.0771L4.62574 12.042C4.62614 12.041 4.62653 12.0399 4.62691 12.0389ZM5.4643 19.3491C5.46405 19.3491 5.46381 19.3491 5.46356 19.349L5.46737 19.2491L5.46515 19.3491C5.46487 19.3491 5.46458 19.3491 5.4643 19.3491ZM5.4643 19.3491C6.17986 19.3764 6.60903 19.45 6.92476 19.5557C7.20988 19.6511 7.40623 19.7736 7.64661 19.9235C7.67208 19.9394 7.69805 19.9556 7.72468 19.9721L7.72474 19.9721C8.42155 20.4035 9.38745 20.9991 11.0004 20.9991C12.6133 20.9991 13.5792 20.4035 14.276 19.9721L14.2761 19.9721C14.3027 19.9556 14.3287 19.9394 14.3541 19.9235C14.5945 19.7736 14.7909 19.6511 15.076 19.5557C15.3918 19.45 15.8212 19.3764 16.5372 19.349L16.5378 19.349C16.557 19.3482 16.5763 19.3473 16.5955 19.3465C17.0651 19.3261 17.5367 19.3056 17.9648 19.0127L17.9654 19.0123C18.2535 18.8124 18.3927 18.5872 18.4818 18.3946C18.5037 18.347 18.5226 18.3017 18.5395 18.2602C18.5428 18.252 18.546 18.2441 18.5492 18.2363C18.5624 18.2039 18.5742 18.1747 18.5862 18.1474C18.6148 18.0822 18.6381 18.0432 18.6625 18.0197M18.6625 18.0197C18.6826 18.0074 18.7159 17.9918 18.7651 17.9727C18.8178 17.9523 18.8827 17.9301 18.9584 17.9049C18.9857 17.8959 19.0142 17.8865 19.0439 17.8767C19.1778 17.8326 19.3349 17.7809 19.5001 17.7189C19.9019 17.5678 20.3675 17.3498 20.697 17.0089M18.6625 18.0197C18.6605 18.021 18.6586 18.0222 18.6568 18.0233L18.6014 17.9401L18.6672 18.0154C18.6656 18.0168 18.6641 18.0182 18.6625 18.0197ZM20.697 17.0089L20.6254 16.9391L20.6973 17.0086C20.6972 17.0087 20.6971 17.0088 20.697 17.0089ZM8.28337 18.9081C9.74166 19.8221 10.6055 19.8061 10.9376 19.7999C10.9612 19.7995 10.9821 19.7991 11.0004 19.7991C11.0188 19.7991 11.0399 19.7995 11.0638 19.8C11.3963 19.8062 12.2607 19.8223 13.7284 18.9191C14.3994 18.5011 14.9604 18.2151 16.5004 18.1601M8.28337 18.9081L17.9414 17.0711C17.6242 17.3486 17.5293 17.5864 17.4588 17.7631C17.4119 17.8806 17.3758 17.971 17.2924 18.0281C17.1539 18.124 16.9123 18.1373 16.5377 18.1581C16.5254 18.1587 16.513 18.1594 16.5004 18.1601M8.28337 18.9081C7.61237 18.4901 7.06237 18.2151 5.51137 18.1491L8.28337 18.9081ZM16.5004 18.1601L16.4948 18.0603L16.4958 18.0602M16.5004 18.1601L16.4968 18.0602L16.5302 18.0583C16.7135 18.0482 16.8596 18.0401 16.9777 18.0239C17.1043 18.0066 17.1839 17.9816 17.2355 17.9459L17.2359 17.9456C17.2681 17.9235 17.2922 17.8919 17.3178 17.8394C17.3343 17.8056 17.3477 17.7717 17.3637 17.7316C17.3755 17.7019 17.3886 17.6689 17.4053 17.6299C17.48 17.4556 17.598 17.2387 17.8755 16.9959L17.8847 16.9879L17.8851 16.9885C18.1223 16.827 18.4498 16.7126 18.7632 16.603C18.8095 16.5869 18.8554 16.5708 18.9007 16.5548C19.2639 16.4258 19.5851 16.2955 19.7696 16.1026M16.4958 18.0602L19.7675 16.1051C19.7682 16.1043 19.7689 16.1034 19.7696 16.1026M16.4958 18.0602C15.7209 18.088 15.1864 18.174 14.7586 18.3081C14.3299 18.4425 14.0134 18.6237 13.6758 18.8341C12.8978 19.3128 12.295 19.5281 11.8562 19.6244C11.4776 19.7075 11.2195 19.7028 11.0655 19.7C11.0412 19.6995 11.0195 19.6991 11.0004 19.6991C10.9814 19.6991 10.9599 19.6995 10.9359 19.7C10.782 19.7028 10.524 19.7075 10.1463 19.6231C9.70902 19.5255 9.10901 19.3076 8.33648 18.8234L8.33625 18.8232C7.99829 18.6127 7.68451 18.4342 7.25709 18.3011C6.83071 18.1684 6.29613 18.0824 5.51563 18.0492L5.51415 18.0492C5.31626 18.0437 5.15927 18.0355 5.03508 18.0172C4.9099 17.9987 4.82898 17.9714 4.7763 17.9349L4.77584 17.9346C4.74315 17.9122 4.71828 17.88 4.69189 17.8274C4.67458 17.7929 4.66009 17.7575 4.64286 17.7155C4.63111 17.6868 4.61808 17.655 4.60201 17.6182C4.52622 17.4448 4.40866 17.2283 4.13701 16.9856L4.13768 16.9848L4.12584 16.9769C3.88582 16.8169 3.56091 16.7031 3.2501 16.5942C3.20196 16.5773 3.15416 16.5606 3.10706 16.5438C2.744 16.4144 2.42423 16.2836 2.23992 16.0893L2.23994 16.0893L2.23808 16.0874C2.2123 16.0616 2.18736 16.0306 2.16606 16.0021C2.17673 15.9931 2.18917 15.9831 2.20349 15.9721C2.25052 15.936 2.31046 15.8951 2.37803 15.8518C2.51302 15.7655 2.67324 15.6731 2.81023 15.5964L2.81025 15.5964L2.81217 15.5953C2.83183 15.5837 2.85174 15.5719 2.8719 15.5601C3.73224 15.0534 5.0351 14.2862 5.83345 12.5254L5.83367 12.5255L5.83612 12.5189C5.98566 12.1163 5.99683 11.7463 5.89095 11.4256C5.78513 11.1052 5.56534 10.8431 5.2687 10.6512L5.26797 10.6507C4.63416 10.2484 4.32873 10.0426 4.16638 9.91084C4.08648 9.84601 4.045 9.80203 4.01683 9.76425C3.99314 9.73246 3.97765 9.70389 3.9554 9.66286C3.95025 9.65336 3.94473 9.64319 3.93867 9.63216C3.90195 9.5605 3.8805 9.482 3.87568 9.40161C3.87083 9.32087 3.88287 9.24 3.91103 9.16417C4.01833 8.87815 4.31502 8.84412 4.45537 8.84412C4.54968 8.84412 4.59096 8.84531 4.80021 8.89628C4.92705 8.92718 5.11172 8.97543 5.40122 9.05108C5.5992 9.10281 5.84622 9.16736 6.1573 9.24793L6.28424 9.2808L6.28236 9.14969C6.27897 8.91227 6.27559 8.69983 6.27253 8.50769C6.25569 7.4507 6.24863 7.00782 6.30396 6.39917L6.30402 6.39849C6.42266 4.98567 6.91554 4.32292 7.35663 3.81712C7.65981 3.49239 8.83338 2.27756 10.9994 2.29914L11.0014 2.29912C13.169 2.27755 14.3426 3.49441 14.6325 3.81647C15.0738 4.32235 15.567 4.98506 15.6857 6.39849L15.6858 6.39917C15.7411 7.00782 15.7341 7.45071 15.7172 8.50772C15.7142 8.69986 15.7108 8.91229 15.7074 9.14969L15.7055 9.28057L15.8323 9.24797C16.1957 9.15451 16.4717 9.08262 16.6842 9.02727C16.9228 8.9651 17.0814 8.9238 17.1938 8.89624C17.4019 8.84524 17.4403 8.84412 17.5344 8.84412C17.6849 8.84412 17.9713 8.87775 18.0787 9.16423L18.0787 9.16425L18.0799 9.1672C18.1458 9.32723 18.1351 9.49181 18.0536 9.62767L18.0536 9.62764L18.0518 9.63093C18.0463 9.64081 18.0413 9.64999 18.0366 9.65861C18.0133 9.70137 17.9976 9.73036 17.9734 9.76249C17.9453 9.79979 17.904 9.84325 17.8244 9.90835C17.663 10.0405 17.3599 10.2491 16.7317 10.6624C16.4352 10.8543 16.2156 11.1163 16.1098 11.4366C16.0039 11.7573 16.0151 12.1273 16.1646 12.5299L16.1644 12.53L16.1673 12.5364C16.9656 14.2972 18.2685 15.0644 19.1288 15.5711C19.1489 15.5829 19.1687 15.5945 19.1883 15.6061C19.2332 15.6331 19.2802 15.6608 19.3277 15.689C19.428 15.7483 19.5309 15.8091 19.6233 15.8674C19.6912 15.9101 19.7511 15.95 19.7981 15.9853C19.8135 15.9968 19.8266 16.0072 19.8377 16.0165M16.4958 18.0602L19.8377 16.0165M19.7696 16.1026C19.7926 16.075 19.8173 16.0436 19.8377 16.0165M19.7696 16.1026L19.8377 16.0165M21.0711 15.5512C21.0711 15.5512 21.071 15.5511 21.071 15.551L20.9774 15.5861L21.0713 15.5518C21.0712 15.5516 21.0712 15.5514 21.0711 15.5512ZM7.77737 19.8871C8.47037 20.3161 9.41637 20.8991 11.0004 20.8991C12.5844 20.8991 13.5304 20.3161 14.2234 19.8871C14.25 19.8706 14.2761 19.8543 14.3018 19.8383C14.8069 19.5231 15.1621 19.3015 16.5334 19.2491C16.5499 19.2484 16.5663 19.2477 16.5828 19.2469C17.0591 19.2261 17.5043 19.2066 17.9084 18.9301L7.77737 19.8871ZM3.55748 18.2125C3.64355 18.4196 3.75704 18.6926 4.09237 18.9301L1.02337 15.5861C0.858374 16.0261 0.968373 16.5211 1.37537 16.9391C1.81702 17.3963 2.52608 17.6296 2.98744 17.7815C3.18108 17.8452 3.33108 17.8946 3.39937 17.9401C3.46761 17.9963 3.50802 18.0935 3.55748 18.2125Z" fill="#898989" stroke="#898989" stroke-width="0.2"/>
</g>
<defs>
<clipPath id="clip0_1_3382">
<rect width="22" height="22" fill="white" transform="translate(0 -0.000976562)"/>
</clipPath>
</defs>
</svg>
