<svg width="32" height="32" viewBox="0 0 32 32" fill="none" xmlns="http://www.w3.org/2000/svg">
<path d="M24.0999 2.07227L29.6639 7.87227V29.9283H8.87891V30.0003H29.7349V7.94527L24.0999 2.07227Z" fill="#909090"/>
<path d="M24.0316 2H8.80859V29.928H29.6646V7.873L24.0316 2Z" fill="#F4F4F4"/>
<path d="M8.65562 3.5H2.26562V10.327H22.3656V3.5H8.65562Z" fill="#7A7B7C"/>
<path d="M22.4715 10.2109H2.39453V3.37891H22.4715V10.2109Z" fill="#DD2025"/>
<path d="M9.05309 4.53465H7.74609V9.33465H8.77409V7.71565L9.00109 7.72865C9.22174 7.72561 9.44036 7.68608 9.64809 7.61165C9.83072 7.54964 9.99856 7.45057 10.1411 7.32065C10.2873 7.19809 10.4021 7.04246 10.4761 6.86665C10.5773 6.57537 10.6132 6.26536 10.5811 5.95865C10.5754 5.7395 10.537 5.52244 10.4671 5.31465C10.4041 5.16446 10.3105 5.02907 10.1922 4.91714C10.0739 4.80521 9.93354 4.71922 9.78009 4.66465C9.64781 4.61566 9.51071 4.5808 9.37109 4.56065C9.26563 4.54348 9.15895 4.53478 9.05209 4.53465M8.86309 6.82865H8.77409V5.34865H8.96709C9.05227 5.34251 9.13775 5.35559 9.21719 5.38691C9.29664 5.41824 9.36803 5.46702 9.42609 5.52965C9.54641 5.69067 9.61069 5.88665 9.60909 6.08765C9.60909 6.33365 9.60909 6.55665 9.38709 6.71365C9.2272 6.80172 9.04513 6.84234 8.86309 6.82865ZM12.5341 4.52165C12.4231 4.52165 12.3151 4.52965 12.2391 4.53265L12.0011 4.53865H11.2211V9.33865H12.1391C12.4899 9.34767 12.8391 9.28823 13.1671 9.16365C13.4312 9.05935 13.665 8.89054 13.8471 8.67265C14.0255 8.4538 14.153 8.19793 14.2201 7.92365C14.299 7.61358 14.3373 7.29458 14.3341 6.97465C14.3537 6.59681 14.3244 6.21802 14.2471 5.84765C14.1731 5.57534 14.036 5.32425 13.8471 5.11465C13.6989 4.94516 13.5166 4.80886 13.3121 4.71465C13.1369 4.63345 12.9526 4.57369 12.7631 4.53665C12.6877 4.5243 12.6114 4.51861 12.5351 4.51965M12.3531 8.45665H12.2531V5.39265H12.2661C12.4723 5.36881 12.6809 5.40602 12.8661 5.49965C13.0018 5.60798 13.1123 5.74445 13.1901 5.89965C13.274 6.06299 13.3224 6.24226 13.3321 6.42565C13.3411 6.64565 13.3321 6.82565 13.3321 6.97465C13.3358 7.14628 13.3248 7.31791 13.2991 7.48765C13.2676 7.66172 13.2107 7.83019 13.1301 7.98765C13.039 8.1345 12.9147 8.25783 12.7671 8.34765C12.6438 8.42766 12.4976 8.4649 12.3511 8.45365M17.4311 4.53865H15.0011V9.33865H16.0291V7.43465H17.3291V6.54265H16.0291V5.43065H17.4291V4.53865" fill="#464648"/>
<path d="M21.7807 20.2555C21.7807 20.2555 24.9687 19.6775 24.9687 20.7665C24.9687 21.8555 22.9937 21.4125 21.7807 20.2555ZM19.4237 20.3385C18.9171 20.4501 18.4235 20.614 17.9507 20.8275L18.3507 19.9275C18.7507 19.0275 19.1657 17.8005 19.1657 17.8005C19.6418 18.6046 20.1972 19.359 20.8237 20.0525C20.3521 20.1228 19.8847 20.2189 19.4237 20.3405V20.3385ZM18.1617 13.8385C18.1617 12.8895 18.4687 12.6305 18.7077 12.6305C18.9467 12.6305 19.2157 12.7455 19.2247 13.5695C19.1467 14.398 18.9732 15.2148 18.7077 16.0035C18.3427 15.3418 18.1543 14.5972 18.1607 13.8415L18.1617 13.8385ZM13.5127 24.3545C12.5347 23.7695 15.5637 21.9685 16.1127 21.9105C16.1097 21.9115 14.5367 24.9665 13.5127 24.3545ZM25.8997 20.8955C25.8897 20.7955 25.7997 19.6885 23.8297 19.7355C23.0085 19.7211 22.1877 19.779 21.3767 19.9085C20.5906 19.1172 19.9139 18.2243 19.3647 17.2535C19.7105 16.2528 19.92 15.2101 19.9877 14.1535C19.9587 12.9535 19.6717 12.2655 18.7517 12.2755C17.8317 12.2855 17.6977 13.0905 17.8187 14.2885C17.9371 15.0936 18.1607 15.8796 18.4837 16.6265C18.4837 16.6265 18.0587 17.9495 17.4967 19.2655C16.9347 20.5815 16.5507 21.2715 16.5507 21.2715C15.5733 21.5893 14.6532 22.062 13.8257 22.6715C13.0017 23.4385 12.6667 24.0275 13.1007 24.6165C13.4747 25.1245 14.7837 25.2395 15.9537 23.7065C16.5743 22.9139 17.1422 22.0815 17.6537 21.2145C17.6537 21.2145 19.4377 20.7255 19.9927 20.5915C20.5477 20.4575 21.2187 20.3515 21.2187 20.3515C21.2187 20.3515 22.8477 21.9905 24.4187 21.9325C25.9897 21.8745 25.9137 20.9935 25.9037 20.8975" fill="#DD2025"/>
<path d="M23.9531 2.07617V7.94917H29.5861L23.9531 2.07617Z" fill="#909090"/>
<path d="M24.0312 2V7.873H29.6642L24.0312 2Z" fill="#F4F4F4"/>
<path d="M8.97497 4.45653H7.66797V9.25653H8.69997V7.63853L8.92797 7.65153C9.14861 7.64849 9.36723 7.60895 9.57497 7.53453C9.75759 7.47252 9.92543 7.37345 10.068 7.24353C10.213 7.12063 10.3268 6.96502 10.4 6.78953C10.5012 6.49824 10.5371 6.18823 10.505 5.88153C10.4993 5.66238 10.4608 5.44531 10.391 5.23753C10.328 5.08734 10.2344 4.95194 10.1161 4.84002C9.99778 4.72809 9.85741 4.64209 9.70397 4.58753C9.57108 4.53806 9.4333 4.50286 9.29297 4.48253C9.1875 4.46535 9.08083 4.45666 8.97397 4.45653M8.78497 6.75053H8.69597V5.27053H8.88997C8.97515 5.26438 9.06062 5.27746 9.14007 5.30879C9.21952 5.34012 9.29091 5.3889 9.34897 5.45153C9.46929 5.61254 9.53356 5.80853 9.53197 6.00953C9.53197 6.25553 9.53197 6.47853 9.30997 6.63553C9.15008 6.7236 8.968 6.76321 8.78597 6.74953M12.456 4.44353C12.345 4.44353 12.237 4.45153 12.161 4.45453L11.926 4.46053H11.146V9.26053H12.064C12.4148 9.26955 12.7639 9.21011 13.092 9.08553C13.3561 8.98122 13.5899 8.81242 13.772 8.59453C13.9504 8.37568 14.0778 8.11981 14.145 7.84553C14.2238 7.53545 14.2622 7.21646 14.259 6.89653C14.2785 6.51868 14.2493 6.13989 14.172 5.76953C14.0979 5.49722 13.9609 5.24613 13.772 5.03653C13.6238 4.86704 13.4415 4.73073 13.237 4.63653C13.0618 4.55533 12.8775 4.49556 12.688 4.45853C12.6126 4.44618 12.5363 4.44049 12.46 4.44153M12.278 8.37853H12.178V5.31453H12.191C12.3971 5.29069 12.6058 5.32789 12.791 5.42153C12.9266 5.52985 13.0372 5.66633 13.115 5.82153C13.1989 5.98486 13.2473 6.16413 13.257 6.34753C13.266 6.56753 13.257 6.74753 13.257 6.89653C13.2607 7.06816 13.2496 7.23979 13.224 7.40953C13.1925 7.58359 13.1356 7.75207 13.055 7.90953C12.9639 8.05637 12.8396 8.1797 12.692 8.26953C12.5687 8.34953 12.4225 8.38678 12.276 8.37553M17.353 4.46053H14.923V9.26053H15.951V7.35653H17.251V6.46453H15.951V5.35253H17.351V4.46053" fill="white"/>
</svg>
