<svg width="18" height="22" viewBox="0 0 18 22" fill="none" xmlns="http://www.w3.org/2000/svg">
<path fill-rule="evenodd" clip-rule="evenodd" d="M4.46967 11.5303C4.17677 11.2374 4.17678 10.7626 4.46967 10.4697C4.76257 10.1768 5.23744 10.1768 5.53033 10.4697L8.24996 13.1893L8.24996 1C8.24996 0.585786 8.58575 0.25 8.99996 0.25C9.41418 0.25 9.74996 0.585786 9.74996 1V13.1894L12.4697 10.4697C12.7626 10.1768 13.2374 10.1768 13.5303 10.4697C13.8232 10.7626 13.8232 11.2374 13.5303 11.5303L9.53029 15.5303C9.38964 15.671 9.19887 15.75 8.99996 15.75C8.80105 15.75 8.61028 15.671 8.46963 15.5303L4.46967 11.5303ZM3.33981 8.46913C3.59889 8.14594 3.54692 7.67392 3.22373 7.41484C2.90054 7.15576 2.42852 7.20774 2.16944 7.53093C0.968714 9.02878 0.25 10.9315 0.25 13C0.25 17.8325 4.16751 21.75 9 21.75C13.8325 21.75 17.75 17.8325 17.75 13C17.75 10.9315 17.0313 9.02878 15.8306 7.53093C15.5715 7.20774 15.0995 7.15576 14.7763 7.41484C14.4531 7.67392 14.4011 8.14594 14.6602 8.46913C15.6553 9.71047 16.25 11.2848 16.25 13C16.25 17.0041 13.0041 20.25 9 20.25C4.99594 20.25 1.75 17.0041 1.75 13C1.75 11.2848 2.34472 9.71047 3.33981 8.46913Z" fill="#16151C"/>
</svg>
