<svg width="22" height="22" viewBox="0 0 22 22" fill="none" xmlns="http://www.w3.org/2000/svg">
<g clip-path="url(#clip0_1_22393)">
<path d="M16.8849 6.29161C16.7419 4.60861 16.1479 3.71761 15.5319 3.01361M16.8849 6.29161C16.9256 6.73993 16.9381 7.18826 16.931 7.6191C16.9385 7.61751 16.9465 7.61581 16.955 7.61402C16.9774 7.60927 17.0029 7.60387 17.0313 7.59822M16.8849 6.29161L16.9845 6.28314M16.8849 6.29161L16.9845 6.28256C16.9845 6.28275 16.9845 6.28295 16.9845 6.28314M15.5319 3.01361L17.2809 12.0776M15.5319 3.01361C15.1689 2.60661 13.7279 1.09961 10.9999 1.09961C8.27188 1.09961 6.83088 2.60661 6.46789 3.01361M15.5319 3.01361H6.46789M17.0313 7.59822C17.0308 7.63248 17.0301 7.66663 17.0294 7.70066C17.1506 7.67585 17.3266 7.64461 17.5339 7.64461C18.3149 7.64461 18.9529 8.07361 19.2059 8.74461M17.0313 7.59822C17.1541 7.57373 17.3299 7.54461 17.5339 7.54461C18.353 7.54461 19.0304 7.99618 19.2993 8.70894M17.0313 7.59822C17.0377 7.17144 17.0249 6.72751 16.9845 6.28314M19.2059 8.74461C19.3929 9.22861 19.3599 9.75661 19.1179 10.2076M19.2059 8.74461L19.2994 8.70933C19.2994 8.7092 19.2994 8.70907 19.2993 8.70894M19.2059 8.74461L19.2992 8.70857C19.2992 8.70869 19.2993 8.70882 19.2993 8.70894M19.1179 10.2076C18.8372 10.7408 18.3816 11.0354 17.7509 11.4431C17.64 11.5148 17.5236 11.59 17.4019 11.6706C17.2259 11.7806 17.2149 11.9016 17.2809 12.0776M19.1179 10.2076L19.206 10.2549C19.2061 10.2548 19.2061 10.2547 19.2062 10.2545C19.2062 10.2544 19.2063 10.2543 19.2064 10.2542L19.1179 10.2076ZM17.2809 12.0776L17.3745 12.0425C17.3741 12.0415 17.3738 12.0405 17.3734 12.0395C17.373 12.0385 17.3725 12.0375 17.3721 12.0365L17.2809 12.0776ZM19.2993 8.70894L20.6965 17.0094M16.9845 6.28314C16.8393 4.57426 16.2338 3.66389 15.6071 2.94776L15.6065 2.94705C15.2352 2.53073 13.7692 0.999609 10.9999 0.999609C8.23055 0.999609 6.76457 2.53073 6.39326 2.94705L6.39263 2.94776C5.76601 3.66389 5.16044 4.57426 5.01524 6.28314L5.01523 6.28314L5.01512 6.28481C4.98493 6.72757 4.97307 7.16989 4.97117 7.59497M4.97117 7.59497C4.84393 7.56855 4.67264 7.54461 4.46588 7.54461C3.65918 7.54461 2.96989 7.98396 2.7005 8.70883M4.97117 7.59497C4.97101 7.62915 4.97092 7.66321 4.9709 7.69715L6.46789 3.01361M4.97117 7.59497C5.00829 7.60268 5.04166 7.6106 5.07107 7.6182C5.07264 7.18763 5.08434 6.73962 5.11488 6.29161C5.25788 4.60861 5.85188 3.71761 6.46789 3.01361M2.7005 8.70883C2.503 9.20925 2.53818 9.77852 2.79373 10.2548M2.7005 8.70883C2.70063 8.7085 2.70076 8.70817 2.70089 8.70784L2.79388 8.74461L2.70013 8.70983C2.70025 8.70949 2.70038 8.70916 2.7005 8.70883ZM2.79373 10.2548C3.09546 10.8193 3.56651 11.1228 4.18996 11.5245C4.30237 11.597 4.41972 11.6726 4.54194 11.7535M2.79373 10.2548C2.79374 10.2548 2.79376 10.2549 2.79377 10.2549L2.88187 10.2076L2.79369 10.2547C2.7937 10.2548 2.79372 10.2548 2.79373 10.2548ZM4.54194 11.7535C4.6197 11.8071 4.64425 11.8469 4.65224 11.8782C4.66083 11.9119 4.65644 11.9584 4.62643 12.0393M4.54194 11.7535C4.5417 11.7533 4.54147 11.7532 4.54123 11.753L4.59788 11.6706L4.54267 11.754C4.54243 11.7538 4.54218 11.7537 4.54194 11.7535ZM4.62643 12.0393C4.10484 13.1825 3.29465 13.7902 2.55871 14.2419C2.42366 14.3248 2.28907 14.4035 2.15874 14.4797C1.93787 14.609 1.72922 14.731 1.55128 14.854C1.26608 15.051 1.03361 15.2664 0.929107 15.5519C0.748678 16.0335 0.873656 16.5681 1.3031 17.0092C1.63264 17.3503 2.0983 17.5683 2.5002 17.7193C2.66533 17.7814 2.82243 17.8331 2.95635 17.8772C2.98603 17.887 3.01458 17.8963 3.04183 17.9054C3.11755 17.9306 3.18244 17.9528 3.23514 17.9732C3.2855 17.9928 3.31916 18.0086 3.33911 18.021C3.3659 18.0447 3.39094 18.084 3.42091 18.1494C3.43505 18.1802 3.44904 18.2138 3.46482 18.2518L3.46878 18.2613C3.48593 18.3025 3.50488 18.3478 3.52673 18.3951C3.61537 18.5869 3.75152 18.8121 4.03408 19.0122L4.03542 19.0131C4.48064 19.3178 4.97121 19.3386 5.46381 19.3496M4.62643 12.0393C4.62691 12.0383 4.62739 12.0372 4.62788 12.0362L4.71888 12.0776L4.62525 12.0425C4.62565 12.0414 4.62604 12.0404 4.62643 12.0393ZM5.46381 19.3496C5.46356 19.3496 5.46332 19.3495 5.46307 19.3495L5.46688 19.2496L5.46466 19.3496C5.46438 19.3496 5.4641 19.3496 5.46381 19.3496ZM5.46381 19.3496C6.17937 19.3769 6.60854 19.4505 6.92427 19.5562C7.20939 19.6516 7.40574 19.7741 7.64612 19.924C7.67159 19.9399 7.69757 19.9561 7.72419 19.9726L7.72425 19.9726C8.42106 20.404 9.38697 20.9996 10.9999 20.9996C12.6128 20.9996 13.5787 20.404 14.2755 19.9726L14.2756 19.9726C14.3022 19.9561 14.3282 19.9399 14.3536 19.924C14.594 19.7741 14.7904 19.6516 15.0755 19.5562C15.3913 19.4505 15.8207 19.3769 16.5367 19.3495L16.5373 19.3495C16.5566 19.3487 16.5758 19.3478 16.595 19.347C17.0646 19.3266 17.5362 19.3061 17.9644 19.0131L17.9649 19.0128C18.253 18.8129 18.3923 18.5877 18.4813 18.3951C18.5032 18.3475 18.5221 18.3022 18.539 18.2607C18.5423 18.2525 18.5455 18.2446 18.5487 18.2368C18.5619 18.2044 18.5737 18.1752 18.5857 18.1479C18.6143 18.0827 18.6376 18.0437 18.662 18.0202M18.662 18.0202C18.6821 18.0079 18.7154 17.9923 18.7646 17.9732C18.8173 17.9528 18.8822 17.9306 18.9579 17.9054C18.9852 17.8963 19.0137 17.887 19.0434 17.8772C19.1773 17.8331 19.3344 17.7814 19.4996 17.7193C19.9014 17.5683 20.367 17.3503 20.6965 17.0094M18.662 18.0202C18.66 18.0214 18.6581 18.0226 18.6564 18.0238L18.6009 17.9406L18.6667 18.0159C18.6651 18.0173 18.6636 18.0187 18.662 18.0202ZM20.6965 17.0094L20.6249 16.9396L20.6968 17.0091C20.6967 17.0092 20.6966 17.0093 20.6965 17.0094ZM8.28288 18.9086C9.74117 19.8226 10.605 19.8066 10.9371 19.8004C10.9607 19.8 10.9816 19.7996 10.9999 19.7996C11.0183 19.7996 11.0394 19.8 11.0633 19.8004C11.3958 19.8067 12.2602 19.8228 13.7279 18.9196C14.3989 18.5016 14.9599 18.2156 16.4999 18.1606M8.28288 18.9086L17.9409 17.0716C17.6238 17.3491 17.5288 17.5869 17.4583 17.7636C17.4115 17.881 17.3754 17.9715 17.2919 18.0286C17.1534 18.1245 16.9119 18.1378 16.5372 18.1585C16.5249 18.1592 16.5125 18.1599 16.4999 18.1606M8.28288 18.9086C7.61188 18.4906 7.06188 18.2156 5.51089 18.1496L8.28288 18.9086ZM16.4999 18.1606L16.4943 18.0608L16.4953 18.0607M16.4999 18.1606L16.4963 18.0607L16.5297 18.0588C16.713 18.0487 16.8591 18.0406 16.9772 18.0244C17.1038 18.0071 17.1834 17.9821 17.235 17.9464L17.2354 17.9461C17.2676 17.924 17.2918 17.8924 17.3173 17.8399C17.3338 17.8061 17.3473 17.7722 17.3632 17.732C17.375 17.7024 17.3881 17.6694 17.4048 17.6303C17.4795 17.4561 17.5975 17.2392 17.875 16.9964L17.8842 16.9883L17.8846 16.9889C18.1218 16.8275 18.4493 16.713 18.7627 16.6035C18.809 16.5874 18.8549 16.5713 18.9002 16.5552C19.2634 16.4263 19.5846 16.296 19.7692 16.1031M16.4953 18.0607L19.7671 16.1056C19.7678 16.1048 19.7685 16.1039 19.7692 16.1031M16.4953 18.0607C15.7204 18.0884 15.1859 18.1744 14.7581 18.3086C14.3294 18.443 14.0129 18.6242 13.6753 18.8346C12.8973 19.3133 12.2945 19.5286 11.8557 19.6249C11.4771 19.708 11.219 19.7033 11.065 19.7005C11.0407 19.7 11.019 19.6996 10.9999 19.6996C10.9809 19.6996 10.9594 19.7 10.9354 19.7004C10.7815 19.7032 10.5235 19.708 10.1458 19.6236C9.70853 19.526 9.10852 19.3081 8.33599 18.8239L8.33576 18.8237C7.9978 18.6132 7.68402 18.4347 7.2566 18.3016C6.83022 18.1689 6.29564 18.0829 5.51514 18.0497L5.51366 18.0496C5.31577 18.0441 5.15878 18.036 5.03459 18.0177C4.90941 17.9992 4.82849 17.9719 4.77581 17.9354L4.77535 17.9351C4.74266 17.9127 4.71779 17.8805 4.6914 17.8279C4.67409 17.7934 4.65961 17.758 4.64237 17.7159C4.63062 17.6873 4.61759 17.6555 4.60152 17.6187C4.52573 17.4453 4.40817 17.2288 4.13652 16.986L4.13719 16.9853L4.12535 16.9774C3.88534 16.8174 3.56042 16.7036 3.24961 16.5947C3.20147 16.5778 3.15367 16.5611 3.10657 16.5443C2.74351 16.4149 2.42374 16.2841 2.23943 16.0898L2.23946 16.0898L2.2376 16.0879C2.21181 16.0621 2.18687 16.0311 2.16557 16.0026C2.17624 15.9936 2.18868 15.9836 2.203 15.9726C2.25003 15.9365 2.30997 15.8956 2.37754 15.8523C2.51253 15.7659 2.67275 15.6736 2.80975 15.5969L2.80976 15.5969L2.81168 15.5957C2.83134 15.5842 2.85125 15.5724 2.87141 15.5606C3.73175 15.0539 5.03461 14.2866 5.83296 12.5259L5.83318 12.526L5.83563 12.5194C5.98517 12.1168 5.99635 11.7468 5.89047 11.4261C5.78464 11.1057 5.56485 10.8436 5.26821 10.6516L5.26748 10.6512C4.63367 10.2489 4.32824 10.0431 4.1659 9.91133C4.08599 9.84649 4.04451 9.80252 4.01634 9.76474C3.99265 9.73295 3.97716 9.70438 3.95491 9.66334C3.94976 9.65385 3.94425 9.64368 3.93819 9.63265C3.90147 9.56099 3.88001 9.48249 3.87519 9.4021C3.87035 9.32135 3.88239 9.24049 3.91054 9.16466C4.01784 8.87864 4.31453 8.84461 4.45489 8.84461C4.5492 8.84461 4.59047 8.8458 4.79972 8.89677C4.92657 8.92767 5.11123 8.97592 5.40073 9.05157C5.59872 9.1033 5.84573 9.16785 6.15681 9.24841L6.28375 9.28129L6.28187 9.15018C6.27848 8.91276 6.2751 8.70032 6.27204 8.50818C6.2552 7.45119 6.24814 7.0083 6.30348 6.39966L6.30353 6.39898C6.42217 4.98616 6.91505 4.32341 7.35614 3.81761C7.65932 3.49288 8.83289 2.27805 10.9989 2.29962L11.0009 2.2996C13.1685 2.27804 14.3421 3.4949 14.6321 3.81695C15.0733 4.32284 15.5666 4.98555 15.6852 6.39898L15.6853 6.39966C15.7406 7.00831 15.7336 7.4512 15.7167 8.50821C15.7137 8.70035 15.7103 8.91278 15.7069 9.15018L15.705 9.28105L15.8318 9.24846C16.1952 9.155 16.4712 9.08311 16.6837 9.02775C16.9224 8.96559 17.0809 8.92429 17.1933 8.89673C17.4014 8.84572 17.4398 8.84461 17.5339 8.84461C17.6844 8.84461 17.9708 8.87824 18.0783 9.16472L18.0782 9.16474L18.0794 9.16768C18.1453 9.32772 18.1347 9.49229 18.0531 9.62816L18.0531 9.62812L18.0513 9.63142C18.0458 9.6413 18.0408 9.65048 18.0361 9.6591C18.0129 9.70186 17.9971 9.73085 17.9729 9.76298C17.9448 9.80028 17.9035 9.84374 17.8239 9.90884C17.6625 10.0409 17.3594 10.2496 16.7312 10.6629C16.4347 10.8548 16.2151 11.1168 16.1093 11.4371C16.0034 11.7578 16.0146 12.1278 16.1641 12.5304L16.1639 12.5305L16.1668 12.5369C16.9652 14.2976 18.268 15.0649 19.1284 15.5716C19.1484 15.5834 19.1682 15.595 19.1878 15.6066C19.2327 15.6335 19.2797 15.6613 19.3272 15.6894C19.4275 15.7487 19.5304 15.8096 19.6228 15.8678C19.6907 15.9106 19.7506 15.9505 19.7976 15.9858C19.813 15.9973 19.8261 16.0077 19.8372 16.017M16.4953 18.0607L19.8372 16.017M19.7692 16.1031C19.7921 16.0755 19.8168 16.0441 19.8372 16.017M19.7692 16.1031L19.8372 16.017M21.0706 15.5517C21.0706 15.5516 21.0705 15.5516 21.0705 15.5515L20.9769 15.5866L21.0708 15.5523C21.0707 15.5521 21.0707 15.5519 21.0706 15.5517ZM7.77688 19.8876C8.46988 20.3166 9.41588 20.8996 10.9999 20.8996C12.5839 20.8996 13.5299 20.3166 14.2229 19.8876C14.2495 19.8711 14.2756 19.8548 14.3013 19.8388C14.8064 19.5236 15.1617 19.3019 16.5329 19.2496C16.5494 19.2489 16.5659 19.2482 16.5823 19.2474C17.0586 19.2266 17.5038 19.2071 17.9079 18.9306L7.77688 19.8876ZM3.55699 18.213C3.64306 18.4201 3.75655 18.6931 4.09188 18.9306L1.02289 15.5866C0.857885 16.0266 0.967885 16.5216 1.37489 16.9396C1.81653 17.3967 2.52559 17.6301 2.98696 17.782C3.18059 17.8457 3.3306 17.8951 3.39889 17.9406C3.46712 17.9968 3.50753 18.094 3.55699 18.213Z" fill="#898989" stroke="#898989" stroke-width="0.2"/>
</g>
<defs>
<clipPath id="clip0_1_22393">
<rect width="22" height="22" fill="white"/>
</clipPath>
</defs>
</svg>
