<svg width="33" height="33" viewBox="0 0 33 33" fill="none" xmlns="http://www.w3.org/2000/svg">
<path d="M27.6182 25.4535H5.76498C5.05466 25.4527 4.37367 25.1702 3.87142 24.6679C3.36917 24.1656 3.08668 23.4846 3.08594 22.7742V9.27793C3.08668 8.56761 3.36917 7.88659 3.87142 7.38429C4.37367 6.882 5.05466 6.59945 5.76498 6.59863H27.6182C28.3285 6.59945 29.0095 6.882 29.5117 7.38429C30.014 7.88659 30.2965 8.56761 30.2972 9.27793V22.7742C30.2965 23.4846 30.014 24.1656 29.5117 24.6679C29.0095 25.1702 28.3285 25.4527 27.6182 25.4535ZM5.76498 7.62263C5.32614 7.62311 4.90541 7.79766 4.59512 8.108C4.28484 8.41833 4.11034 8.83909 4.10994 9.27793V22.7742C4.11034 23.2131 4.28484 23.6338 4.59512 23.9442C4.90541 24.2545 5.32614 24.4291 5.76498 24.4295H27.6182C28.057 24.4291 28.4777 24.2545 28.788 23.9442C29.0983 23.6338 29.2728 23.2131 29.2732 22.7742V9.27793C29.2728 8.83909 29.0983 8.41833 28.788 8.108C28.4777 7.79766 28.057 7.62311 27.6182 7.62263H5.76498Z" fill="black"/>
<path d="M16.6918 19.0393C16.567 19.0393 16.4465 18.9938 16.3529 18.9113L4.01367 8.01898L4.6913 7.25098L16.6918 17.8453L28.6928 7.25226L29.3705 8.02026L17.0313 18.9125C16.9374 18.9949 16.8167 19.04 16.6918 19.0393Z" fill="black"/>
<path d="M3.73438 23.8465L12.0237 14.4013L12.794 15.0772L4.50468 24.522L3.73438 23.8465ZM20.6142 15.0674L21.3843 14.3916L29.6738 23.8362L28.9038 24.5121L20.6142 15.0674Z" fill="black"/>
</svg>
