<svg width="39" height="39" viewBox="0 0 39 39" fill="none" xmlns="http://www.w3.org/2000/svg">
<path d="M24.8871 5.53223H14.0449C13.2775 5.53309 12.5418 5.83833 11.9991 6.38097C11.4565 6.92361 11.1513 7.65935 11.1504 8.42676V30.3955C11.1513 31.1629 11.4565 31.8987 11.9991 32.4413C12.5418 32.9839 13.2775 33.2892 14.0449 33.29H24.8871C25.6545 33.2892 26.3902 32.9839 26.9329 32.4413C27.4755 31.8987 27.7808 31.1629 27.7816 30.3955V8.42676C27.7808 7.65935 27.4755 6.92361 26.9329 6.38097C26.3902 5.83833 25.6545 5.53309 24.8871 5.53223ZM22.7247 6.57129V7.24282C22.7244 7.37846 22.6704 7.50848 22.5745 7.60436C22.4785 7.70025 22.3485 7.75418 22.2128 7.75434H16.7207C16.585 7.75418 16.455 7.70024 16.3591 7.60434C16.2632 7.50845 16.2093 7.37843 16.2091 7.24282V6.57129H22.7247ZM26.7423 30.3955C26.7417 30.8874 26.5461 31.3591 26.1982 31.7069C25.8504 32.0548 25.3787 32.2504 24.8868 32.251H14.0449C13.553 32.2504 13.0814 32.0548 12.7335 31.7069C12.3857 31.3591 12.19 30.8874 12.1895 30.3955V8.42676C12.19 7.93483 12.3857 7.4632 12.7335 7.11535C13.0814 6.7675 13.553 6.57184 14.0449 6.57129H15.1689V7.24282C15.1694 7.65391 15.3329 8.04804 15.6236 8.33872C15.9143 8.62941 16.3084 8.79293 16.7195 8.7934H22.2117C22.6228 8.79293 23.0169 8.62942 23.3077 8.33874C23.5984 8.04806 23.762 7.65394 23.7625 7.24282V6.57129H24.8871C25.379 6.57192 25.8505 6.76762 26.1983 7.11546C26.5461 7.4633 26.7417 7.93488 26.7423 8.42676V30.3955Z" fill="black"/>
<path d="M22.6605 29.7764H16.2715C16.1337 29.7764 16.0016 29.8311 15.9041 29.9285C15.8067 30.026 15.752 30.1581 15.752 30.2959C15.752 30.4337 15.8067 30.5658 15.9041 30.6633C16.0016 30.7607 16.1337 30.8154 16.2715 30.8154H22.6605C22.7983 30.8154 22.9305 30.7607 23.0279 30.6633C23.1253 30.5658 23.1801 30.4337 23.1801 30.2959C23.1801 30.1581 23.1253 30.026 23.0279 29.9285C22.9305 29.8311 22.7983 29.7764 22.6605 29.7764Z" fill="black"/>
</svg>
