<svg width="33" height="33" viewBox="0 0 33 33" fill="none" xmlns="http://www.w3.org/2000/svg">
<path d="M23.4302 18.8727C23.2718 18.7836 23.0922 18.6825 22.8759 18.5523C22.7551 18.4794 22.6033 18.3797 22.4424 18.2741C21.6167 17.7321 20.991 17.3485 20.4584 17.3485C20.3336 17.3485 20.2156 17.3696 20.108 17.4111C19.6414 17.5908 19.2582 18.0709 18.8877 18.5351C18.7519 18.7051 18.5575 18.9486 18.4395 19.0574C17.9717 18.9724 16.9849 18.3611 15.92 17.2962C14.8539 16.2301 14.2424 15.2421 14.1585 14.7754C14.2672 14.657 14.5125 14.4612 14.6837 14.3245C15.1461 13.9553 15.6243 13.5736 15.805 13.1084C16.0355 12.5107 15.613 11.7959 14.9421 10.7737C14.8365 10.6129 14.7368 10.4609 14.6644 10.3411C14.5337 10.1239 14.4327 9.94424 14.3436 9.78587C13.9778 9.13574 13.7361 8.70605 12.8279 8.70605C12.2385 8.70605 11.4051 9.26305 10.8406 9.81543C10.0202 10.6184 9.56836 11.5454 9.56836 12.4275C9.56992 14.8234 10.907 17.5694 13.2369 19.9641C13.2409 19.9681 13.2449 19.9692 13.249 19.9732C15.6438 22.3031 18.3913 23.6357 20.7871 23.6357H20.788C21.669 23.6357 22.5963 23.189 23.3992 22.3691C23.952 21.8046 24.5097 20.9773 24.5097 20.3882C24.5098 19.4802 24.0804 19.2386 23.4302 18.8727ZM20.7874 22.3979C18.7466 22.3964 16.2572 21.1596 14.1269 19.0894C12.0565 16.9589 10.8197 14.4693 10.8184 12.4287C10.8184 11.1944 12.4202 10.0209 12.839 9.95655C12.9246 9.95693 12.9695 9.96199 12.9909 9.96562C13.0462 10.0294 13.1563 10.225 13.2543 10.3992C13.343 10.5568 13.4534 10.7531 13.594 10.9867C13.679 11.1276 13.785 11.289 13.8972 11.4599C14.1095 11.7834 14.5364 12.4336 14.6083 12.7112C14.488 12.8815 14.1147 13.1795 13.9039 13.3477C13.3645 13.7784 12.8986 14.1503 12.8986 14.6759C12.8999 15.9454 14.5351 17.6791 15.0362 18.1802C15.5374 18.6814 17.2711 20.3166 18.5433 20.3178C19.0655 20.3161 19.4358 19.8522 19.8647 19.315C20.0338 19.1032 20.3336 18.7276 20.5046 18.6079C20.7819 18.6794 21.4329 19.1067 21.7567 19.3192C21.9275 19.4314 22.0889 19.5373 22.2306 19.6229C22.4635 19.763 22.6597 19.8734 22.8174 19.9621C22.9915 20.0601 23.1872 20.1702 23.2509 20.2256C23.2545 20.2469 23.2595 20.2918 23.26 20.3773C23.1952 20.7958 22.0212 22.3964 20.7874 22.3979Z" fill="black"/>
<path d="M29.465 16.4705C29.4211 13.093 28.0654 9.90135 25.6476 7.48354C23.1853 5.02116 19.935 3.66504 16.4953 3.66504C13.175 3.66504 10.0689 4.94266 7.74902 7.26248C5.6904 9.3211 4.4274 12.0667 4.19246 14.9937C3.96965 17.7707 4.67658 20.5809 6.18615 22.9438L4.12477 28.5158C4.08981 28.6103 4.07821 28.7119 4.09097 28.8118C4.10373 28.9118 4.14047 29.0072 4.19806 29.0898C4.25565 29.1725 4.33238 29.2401 4.42171 29.2867C4.51104 29.3333 4.61032 29.3577 4.71108 29.3577C4.79333 29.3577 4.87633 29.3338 4.95502 29.3004L10.3237 27.0158C12.3732 28.2914 14.7167 28.9488 17.1231 28.9488H17.1233C20.4431 28.9488 23.5491 27.6865 25.8687 25.3669C28.2317 23.0039 29.509 19.8542 29.465 16.4705ZM24.9847 24.4982C22.9011 26.5819 20.1091 27.7293 17.123 27.7292C14.8497 27.7292 12.638 27.0638 10.7268 25.8049C10.6408 25.7483 10.5422 25.7137 10.4396 25.7044C10.3371 25.6951 10.2338 25.7113 10.139 25.7515L5.79927 27.5922L7.46802 23.0815C7.50243 22.9884 7.5142 22.8885 7.50236 22.79C7.49051 22.6915 7.45539 22.5972 7.3999 22.515C4.33265 17.9709 4.85121 11.928 8.6329 8.14641C10.7166 6.06266 13.5089 4.91504 16.4953 4.91504C19.601 4.91504 22.5375 6.1411 24.7637 8.36741C26.9498 10.5534 28.1755 13.4369 28.2151 16.4868C28.2546 19.5304 27.1074 22.3756 24.9847 24.4982Z" fill="black"/>
</svg>
